<?xml version="1.0" encoding="utf-8"?>
<svg viewBox="7.61 6.762 10.405 10.476" xmlns="http://www.w3.org/2000/svg">
  <path fill="#607B96" d="M 16.214 6.762 L 16.139 7.153 C 16.023 7.894 16.065 8.106 16.383 8.381 L 16.69 8.635 L 16.372 10.053 C 16.182 10.899 15.949 11.608 15.801 11.841 C 15.674 12.042 15.526 12.338 15.494 12.497 C 15.441 12.687 15.261 12.878 14.986 13.047 C 14.743 13.185 14.266 13.555 13.928 13.852 C 13.658 14.095 13.472 14.244 13.371 14.308 L 13.041 14.569 C 12.935 14.739 12.875 14.876 12.852 14.98 C 12.829 15.087 12.842 15.158 12.876 15.21 C 12.909 15.26 12.966 15.295 13.044 15.317 C 13.136 15.339 13.231 15.346 13.326 15.34 C 13.54 15.325 13.752 15.288 13.958 15.228 C 14.028 15.209 14.083 15.191 14.131 15.175 C 14.205 15.084 14.376 14.912 14.679 14.613 C 15.483 13.82 15.79 13.386 15.473 13.503 C 15.356 13.545 15.409 13.439 15.61 13.227 C 16.034 12.814 16.277 12.19 16.785 10.233 C 17.187 8.688 17.187 8.666 17.483 8.666 C 17.622 8.666 18.015 8.69 18.015 8.69 L 18.015 6.762 L 17.113 6.762 L 16.214 6.762 Z M 12.652 10.067 C 12.36 10.065 11.732 10.51 9.852 12.045 C 9.771 12.238 9.764 12.371 9.801 12.457 C 9.825 12.516 9.869 12.557 9.93 12.587 C 9.99 12.617 10.068 12.635 10.154 12.642 C 10.325 12.657 10.527 12.63 10.69 12.598 L 10.8 12.573 C 10.838 12.523 10.887 12.482 10.944 12.455 C 11.06 12.391 11.547 11.947 12.034 11.471 C 12.891 10.603 13.092 10.211 12.743 10.084 C 12.714 10.073 12.684 10.067 12.653 10.067 L 12.652 10.067 Z M 14.848 10.67 C 14.591 10.677 14.128 10.975 13.335 11.608 C 12.937 11.931 12.685 12.105 12.55 12.141 L 12.026 12.555 C 11.829 12.915 11.8 13.138 11.852 13.261 C 11.878 13.322 11.928 13.371 11.99 13.395 C 12.066 13.425 12.148 13.44 12.23 13.44 C 12.426 13.438 12.621 13.409 12.81 13.355 C 12.908 13.329 13.005 13.298 13.101 13.263 L 13.13 13.251 L 13.183 13.223 C 13.283 13.094 13.513 12.851 13.801 12.571 C 14.711 11.693 15.176 11.069 15.081 10.836 C 15.038 10.723 14.964 10.666 14.848 10.67 Z M 12.424 11.75 C 12.35 11.758 12.184 11.886 11.885 12.148 C 11.453 12.53 10.982 12.75 10.819 12.652 C 10.781 12.661 10.743 12.669 10.705 12.676 C 10.539 12.709 10.332 12.736 10.147 12.721 C 10.06 12.716 9.974 12.694 9.895 12.658 C 9.82 12.624 9.76 12.563 9.727 12.488 C 9.69 12.398 9.69 12.286 9.732 12.143 L 9.082 12.677 L 7.611 13.894 L 7.611 15.867 L 12.431 12.07 C 12.43 12.028 12.435 11.987 12.447 11.947 C 12.484 11.813 12.482 11.745 12.424 11.751 L 12.424 11.75 Z M 14.498 12.389 C 14.425 12.389 14.303 12.492 14.108 12.699 C 13.843 12.982 13.426 13.256 13.205 13.312 L 13.171 13.33 C 13.135 13.345 13.098 13.359 13.061 13.372 C 13.001 13.392 12.923 13.416 12.833 13.44 C 12.653 13.489 12.429 13.534 12.229 13.529 C 12.135 13.529 12.041 13.511 11.954 13.475 C 11.872 13.441 11.806 13.377 11.77 13.295 C 11.712 13.156 11.735 12.961 11.862 12.684 L 7.61 16.033 L 7.61 17.238 L 9.478 17.238 L 13.44 14.126 C 13.543 14.012 13.698 13.856 13.907 13.661 C 14.467 13.142 14.594 12.963 14.594 12.698 C 14.594 12.492 14.571 12.388 14.498 12.388 L 14.498 12.389 Z M 15.441 14.339 L 15.102 14.677 C 14.912 14.857 14.573 15.079 14.341 15.174 L 14.295 15.194 L 14.292 15.199 L 14.282 15.209 C 14.273 15.216 14.269 15.217 14.262 15.22 C 14.169 15.255 14.075 15.286 13.98 15.313 C 13.768 15.375 13.55 15.413 13.33 15.428 C 13.226 15.435 13.121 15.426 13.02 15.401 C 12.932 15.382 12.854 15.33 12.802 15.257 C 12.754 15.183 12.74 15.084 12.767 14.962 C 12.788 14.875 12.82 14.791 12.862 14.712 L 9.665 17.238 L 13.917 17.238 L 14.425 16.656 C 15.123 15.842 15.441 15.26 15.441 14.762 L 15.441 14.339 Z" style="transform-origin: 12.8125px 12px;"/>
</svg>